<mxfile host="drawio-plugin" modified="2021-03-26T01:37:21.211Z" agent="5.0 (Windows NT 6.2; Win64; x64) AppleWebKit/537.36 (KHTML, like Gecko) Chrome/84.0.4147.105 Safari/537.36" etag="bY2bkQG5fdWMXE2MVFGp" version="13.7.9" type="embed"><diagram id="29rGRaMjXw8uRga9VlSF" name="Swarm simulation"><mxGraphModel dx="251" dy="189" grid="1" gridSize="10" guides="1" tooltips="1" connect="1" arrows="1" fold="1" page="1" pageScale="1" pageWidth="583" pageHeight="413" math="0" shadow="0"><root><mxCell id="0"/><mxCell id="1" parent="0"/><object label="" type="drone" id="2"><mxCell style="rounded=0;whiteSpace=wrap;html=1;fillColor=#000000;strokeColor=#FF0000;" parent="1" vertex="1"><mxGeometry x="199" y="40" width="5" height="5" as="geometry"/></mxCell></object><object label="" type="drone" id="6"><mxCell style="rounded=0;whiteSpace=wrap;html=1;fillColor=#000000;strokeColor=#FF0000;" parent="1" vertex="1"><mxGeometry x="209" y="40" width="5" height="5" as="geometry"/></mxCell></object><object label="" type="drone" id="7"><mxCell style="rounded=0;whiteSpace=wrap;html=1;fillColor=#000000;strokeColor=#FF0000;" parent="1" vertex="1"><mxGeometry x="219" y="40" width="5" height="5" as="geometry"/></mxCell></object><object label="" type="drone" id="8"><mxCell style="rounded=0;whiteSpace=wrap;html=1;fillColor=#000000;strokeColor=#FF0000;" parent="1" vertex="1"><mxGeometry x="229" y="40" width="5" height="5" as="geometry"/></mxCell></object><object label="" type="drone" id="13"><mxCell style="rounded=0;whiteSpace=wrap;html=1;fillColor=#000000;strokeColor=#FF0000;" parent="1" vertex="1"><mxGeometry x="199" y="80" width="5" height="5" as="geometry"/></mxCell></object><object label="" type="drone" id="14"><mxCell style="rounded=0;whiteSpace=wrap;html=1;fillColor=#000000;strokeColor=#FF0000;" parent="1" vertex="1"><mxGeometry x="209" y="80" width="5" height="5" as="geometry"/></mxCell></object><object label="" type="drone" id="15"><mxCell style="rounded=0;whiteSpace=wrap;html=1;fillColor=#000000;strokeColor=#FF0000;" parent="1" vertex="1"><mxGeometry x="219" y="80" width="5" height="5" as="geometry"/></mxCell></object><object label="" type="drone" id="16"><mxCell style="rounded=0;whiteSpace=wrap;html=1;fillColor=#000000;strokeColor=#FF0000;" parent="1" vertex="1"><mxGeometry x="229" y="80" width="5" height="5" as="geometry"/></mxCell></object><object label="" type="drone" id="17"><mxCell style="rounded=0;whiteSpace=wrap;html=1;fillColor=#000000;strokeColor=#FF0000;" parent="1" vertex="1"><mxGeometry x="322" y="80" width="5" height="5" as="geometry"/></mxCell></object><object label="" type="drone" id="18"><mxCell style="rounded=0;whiteSpace=wrap;html=1;fillColor=#000000;strokeColor=#FF0000;" parent="1" vertex="1"><mxGeometry x="332" y="80" width="5" height="5" as="geometry"/></mxCell></object><object label="" type="drone" id="19"><mxCell style="rounded=0;whiteSpace=wrap;html=1;fillColor=#000000;strokeColor=#FF0000;" parent="1" vertex="1"><mxGeometry x="342" y="80" width="5" height="5" as="geometry"/></mxCell></object><object label="" type="drone" id="20"><mxCell style="rounded=0;whiteSpace=wrap;html=1;fillColor=#000000;strokeColor=#FF0000;" parent="1" vertex="1"><mxGeometry x="352" y="80" width="5" height="5" as="geometry"/></mxCell></object><object label="" type="drone" id="21"><mxCell style="rounded=0;whiteSpace=wrap;html=1;fillColor=#000000;strokeColor=#FF0000;" parent="1" vertex="1"><mxGeometry x="322" y="40" width="5" height="5" as="geometry"/></mxCell></object><object label="" type="drone" id="22"><mxCell style="rounded=0;whiteSpace=wrap;html=1;fillColor=#000000;strokeColor=#FF0000;" parent="1" vertex="1"><mxGeometry x="332" y="40" width="5" height="5" as="geometry"/></mxCell></object><object label="" type="drone" id="23"><mxCell style="rounded=0;whiteSpace=wrap;html=1;fillColor=#000000;strokeColor=#FF0000;" parent="1" vertex="1"><mxGeometry x="342" y="40" width="5" height="5" as="geometry"/></mxCell></object><object label="" type="drone" id="24"><mxCell style="rounded=0;whiteSpace=wrap;html=1;fillColor=#000000;strokeColor=#FF0000;" parent="1" vertex="1"><mxGeometry x="352" y="40" width="5" height="5" as="geometry"/></mxCell></object><object label="" type="drone" id="41"><mxCell style="rounded=0;whiteSpace=wrap;html=1;fillColor=#000000;strokeColor=#FF0000;" parent="1" vertex="1"><mxGeometry x="85" y="40" width="5" height="5" as="geometry"/></mxCell></object><object label="" type="drone" id="42"><mxCell style="rounded=0;whiteSpace=wrap;html=1;fillColor=#000000;strokeColor=#FF0000;" parent="1" vertex="1"><mxGeometry x="95" y="40" width="5" height="5" as="geometry"/></mxCell></object><object label="" type="drone" id="43"><mxCell style="rounded=0;whiteSpace=wrap;html=1;fillColor=#000000;strokeColor=#FF0000;" parent="1" vertex="1"><mxGeometry x="105" y="40" width="5" height="5" as="geometry"/></mxCell></object><object label="" type="drone" id="44"><mxCell style="rounded=0;whiteSpace=wrap;html=1;fillColor=#000000;strokeColor=#FF0000;" parent="1" vertex="1"><mxGeometry x="115" y="40" width="5" height="5" as="geometry"/></mxCell></object><object label="" type="drone" id="45"><mxCell style="rounded=0;whiteSpace=wrap;html=1;fillColor=#000000;strokeColor=#FF0000;" parent="1" vertex="1"><mxGeometry x="160" y="120" width="5" height="5" as="geometry"/></mxCell></object><object label="" type="drone" id="46"><mxCell style="rounded=0;whiteSpace=wrap;html=1;fillColor=#000000;strokeColor=#FF0000;" parent="1" vertex="1"><mxGeometry x="170" y="120" width="5" height="5" as="geometry"/></mxCell></object><object label="" type="drone" id="47"><mxCell style="rounded=0;whiteSpace=wrap;html=1;fillColor=#000000;strokeColor=#FF0000;" parent="1" vertex="1"><mxGeometry x="180" y="120" width="5" height="5" as="geometry"/></mxCell></object><object label="" type="drone" id="48"><mxCell style="rounded=0;whiteSpace=wrap;html=1;fillColor=#000000;strokeColor=#FF0000;" parent="1" vertex="1"><mxGeometry x="190" y="120" width="5" height="5" as="geometry"/></mxCell></object><object label="" type="drone" id="49"><mxCell style="rounded=0;whiteSpace=wrap;html=1;fillColor=#000000;strokeColor=#FF0000;" parent="1" vertex="1"><mxGeometry x="60" y="177" width="5" height="5" as="geometry"/></mxCell></object><object label="" type="drone" id="50"><mxCell style="rounded=0;whiteSpace=wrap;html=1;fillColor=#000000;strokeColor=#FF0000;" parent="1" vertex="1"><mxGeometry x="70" y="177" width="5" height="5" as="geometry"/></mxCell></object><object label="" type="drone" id="51"><mxCell style="rounded=0;whiteSpace=wrap;html=1;fillColor=#000000;strokeColor=#FF0000;" parent="1" vertex="1"><mxGeometry x="80" y="177" width="5" height="5" as="geometry"/></mxCell></object><object label="" type="drone" id="52"><mxCell style="rounded=0;whiteSpace=wrap;html=1;fillColor=#000000;strokeColor=#FF0000;" parent="1" vertex="1"><mxGeometry x="90" y="177" width="5" height="5" as="geometry"/></mxCell></object><object label="" type="drone" id="53"><mxCell style="rounded=0;whiteSpace=wrap;html=1;fillColor=#000000;strokeColor=#FF0000;" parent="1" vertex="1"><mxGeometry x="150" y="202" width="5" height="5" as="geometry"/></mxCell></object><object label="" type="drone" id="54"><mxCell style="rounded=0;whiteSpace=wrap;html=1;fillColor=#000000;strokeColor=#FF0000;" parent="1" vertex="1"><mxGeometry x="160" y="202" width="5" height="5" as="geometry"/></mxCell></object><object label="" type="drone" id="55"><mxCell style="rounded=0;whiteSpace=wrap;html=1;fillColor=#000000;strokeColor=#FF0000;" parent="1" vertex="1"><mxGeometry x="170" y="202" width="5" height="5" as="geometry"/></mxCell></object><object label="" type="drone" id="56"><mxCell style="rounded=0;whiteSpace=wrap;html=1;fillColor=#000000;strokeColor=#FF0000;" parent="1" vertex="1"><mxGeometry x="180" y="202" width="5" height="5" as="geometry"/></mxCell></object><object label="" type="drone" id="57"><mxCell style="rounded=0;whiteSpace=wrap;html=1;fillColor=#000000;strokeColor=#FF0000;" parent="1" vertex="1"><mxGeometry x="234" y="160" width="5" height="5" as="geometry"/></mxCell></object><object label="" type="drone" id="58"><mxCell style="rounded=0;whiteSpace=wrap;html=1;fillColor=#000000;strokeColor=#FF0000;" parent="1" vertex="1"><mxGeometry x="244" y="160" width="5" height="5" as="geometry"/></mxCell></object><object label="" type="drone" id="59"><mxCell style="rounded=0;whiteSpace=wrap;html=1;fillColor=#000000;strokeColor=#FF0000;" parent="1" vertex="1"><mxGeometry x="254" y="160" width="5" height="5" as="geometry"/></mxCell></object><object label="" type="drone" id="60"><mxCell style="rounded=0;whiteSpace=wrap;html=1;fillColor=#000000;strokeColor=#FF0000;" parent="1" vertex="1"><mxGeometry x="264" y="160" width="5" height="5" as="geometry"/></mxCell></object><object label="" type="drone" id="61"><mxCell style="rounded=0;whiteSpace=wrap;html=1;fillColor=#000000;strokeColor=#FF0000;" parent="1" vertex="1"><mxGeometry x="322" y="320" width="5" height="5" as="geometry"/></mxCell></object><object label="" type="drone" id="62"><mxCell style="rounded=0;whiteSpace=wrap;html=1;fillColor=#000000;strokeColor=#FF0000;" parent="1" vertex="1"><mxGeometry x="332" y="320" width="5" height="5" as="geometry"/></mxCell></object><object label="" type="drone" id="63"><mxCell style="rounded=0;whiteSpace=wrap;html=1;fillColor=#000000;strokeColor=#FF0000;" parent="1" vertex="1"><mxGeometry x="342" y="320" width="5" height="5" as="geometry"/></mxCell></object><object label="" type="drone" id="64"><mxCell style="rounded=0;whiteSpace=wrap;html=1;fillColor=#000000;strokeColor=#FF0000;" parent="1" vertex="1"><mxGeometry x="352" y="320" width="5" height="5" as="geometry"/></mxCell></object><object label="" type="drone" id="65"><mxCell style="rounded=0;whiteSpace=wrap;html=1;fillColor=#000000;strokeColor=#FF0000;" parent="1" vertex="1"><mxGeometry x="80" y="310" width="5" height="5" as="geometry"/></mxCell></object><object label="" type="drone" id="66"><mxCell style="rounded=0;whiteSpace=wrap;html=1;fillColor=#000000;strokeColor=#FF0000;" parent="1" vertex="1"><mxGeometry x="90" y="310" width="5" height="5" as="geometry"/></mxCell></object><object label="" type="drone" id="67"><mxCell style="rounded=0;whiteSpace=wrap;html=1;fillColor=#000000;strokeColor=#FF0000;" parent="1" vertex="1"><mxGeometry x="100" y="310" width="5" height="5" as="geometry"/></mxCell></object><object label="" type="drone" id="68"><mxCell style="rounded=0;whiteSpace=wrap;html=1;fillColor=#000000;strokeColor=#FF0000;" parent="1" vertex="1"><mxGeometry x="110" y="310" width="5" height="5" as="geometry"/></mxCell></object><object label="" type="drone" id="69"><mxCell style="rounded=0;whiteSpace=wrap;html=1;fillColor=#000000;strokeColor=#FF0000;" parent="1" vertex="1"><mxGeometry x="214" y="380" width="5" height="5" as="geometry"/></mxCell></object><object label="" type="drone" id="70"><mxCell style="rounded=0;whiteSpace=wrap;html=1;fillColor=#000000;strokeColor=#FF0000;" parent="1" vertex="1"><mxGeometry x="224" y="380" width="5" height="5" as="geometry"/></mxCell></object><object label="" type="drone" id="71"><mxCell style="rounded=0;whiteSpace=wrap;html=1;fillColor=#000000;strokeColor=#FF0000;" parent="1" vertex="1"><mxGeometry x="234" y="380" width="5" height="5" as="geometry"/></mxCell></object><object label="" type="drone" id="72"><mxCell style="rounded=0;whiteSpace=wrap;html=1;fillColor=#000000;strokeColor=#FF0000;" parent="1" vertex="1"><mxGeometry x="244" y="380" width="5" height="5" as="geometry"/></mxCell></object><object label="" type="drone" id="73"><mxCell style="rounded=0;whiteSpace=wrap;html=1;fillColor=#000000;strokeColor=#FF0000;" parent="1" vertex="1"><mxGeometry x="352" y="160" width="5" height="5" as="geometry"/></mxCell></object><object label="" type="drone" id="74"><mxCell style="rounded=0;whiteSpace=wrap;html=1;fillColor=#000000;strokeColor=#FF0000;" parent="1" vertex="1"><mxGeometry x="362" y="160" width="5" height="5" as="geometry"/></mxCell></object><object label="" type="drone" id="75"><mxCell style="rounded=0;whiteSpace=wrap;html=1;fillColor=#000000;strokeColor=#FF0000;" parent="1" vertex="1"><mxGeometry x="372" y="160" width="5" height="5" as="geometry"/></mxCell></object><object label="" type="drone" id="76"><mxCell style="rounded=0;whiteSpace=wrap;html=1;fillColor=#000000;strokeColor=#FF0000;" parent="1" vertex="1"><mxGeometry x="382" y="160" width="5" height="5" as="geometry"/></mxCell></object><object label="" type="drone" id="77"><mxCell style="rounded=0;whiteSpace=wrap;html=1;fillColor=#000000;strokeColor=#FF0000;" parent="1" vertex="1"><mxGeometry x="204" y="255" width="5" height="5" as="geometry"/></mxCell></object><object label="" type="drone" id="78"><mxCell style="rounded=0;whiteSpace=wrap;html=1;fillColor=#000000;strokeColor=#FF0000;" parent="1" vertex="1"><mxGeometry x="214" y="255" width="5" height="5" as="geometry"/></mxCell></object><object label="" type="drone" id="79"><mxCell style="rounded=0;whiteSpace=wrap;html=1;fillColor=#000000;strokeColor=#FF0000;" parent="1" vertex="1"><mxGeometry x="224" y="255" width="5" height="5" as="geometry"/></mxCell></object><object label="" type="drone" id="80"><mxCell style="rounded=0;whiteSpace=wrap;html=1;fillColor=#000000;strokeColor=#FF0000;" parent="1" vertex="1"><mxGeometry x="234" y="255" width="5" height="5" as="geometry"/></mxCell></object><object label="" type="drone" id="81"><mxCell style="rounded=0;whiteSpace=wrap;html=1;fillColor=#000000;strokeColor=#FF0000;" parent="1" vertex="1"><mxGeometry x="10" y="350" width="5" height="5" as="geometry"/></mxCell></object><object label="" type="drone" id="82"><mxCell style="rounded=0;whiteSpace=wrap;html=1;fillColor=#000000;strokeColor=#FF0000;" parent="1" vertex="1"><mxGeometry x="20" y="350" width="5" height="5" as="geometry"/></mxCell></object><object label="" type="drone" id="83"><mxCell style="rounded=0;whiteSpace=wrap;html=1;fillColor=#000000;strokeColor=#FF0000;" parent="1" vertex="1"><mxGeometry x="30" y="350" width="5" height="5" as="geometry"/></mxCell></object><object label="" type="drone" id="84"><mxCell style="rounded=0;whiteSpace=wrap;html=1;fillColor=#000000;strokeColor=#FF0000;" parent="1" vertex="1"><mxGeometry x="40" y="350" width="5" height="5" as="geometry"/></mxCell></object><object label="" type="drone" id="85"><mxCell style="rounded=0;whiteSpace=wrap;html=1;fillColor=#000000;strokeColor=#FF0000;" parent="1" vertex="1"><mxGeometry x="100" y="380" width="5" height="5" as="geometry"/></mxCell></object><object label="" type="drone" id="86"><mxCell style="rounded=0;whiteSpace=wrap;html=1;fillColor=#000000;strokeColor=#FF0000;" parent="1" vertex="1"><mxGeometry x="110" y="380" width="5" height="5" as="geometry"/></mxCell></object><object label="" type="drone" id="87"><mxCell style="rounded=0;whiteSpace=wrap;html=1;fillColor=#000000;strokeColor=#FF0000;" parent="1" vertex="1"><mxGeometry x="120" y="380" width="5" height="5" as="geometry"/></mxCell></object><object label="" type="drone" id="88"><mxCell style="rounded=0;whiteSpace=wrap;html=1;fillColor=#000000;strokeColor=#FF0000;" parent="1" vertex="1"><mxGeometry x="130" y="380" width="5" height="5" as="geometry"/></mxCell></object><object label="" type="drone" id="89"><mxCell style="rounded=0;whiteSpace=wrap;html=1;fillColor=#000000;strokeColor=#FF0000;" parent="1" vertex="1"><mxGeometry x="475" y="290" width="5" height="5" as="geometry"/></mxCell></object><object label="" type="drone" id="90"><mxCell style="rounded=0;whiteSpace=wrap;html=1;fillColor=#000000;strokeColor=#FF0000;" parent="1" vertex="1"><mxGeometry x="485" y="290" width="5" height="5" as="geometry"/></mxCell></object><object label="" type="drone" id="91"><mxCell style="rounded=0;whiteSpace=wrap;html=1;fillColor=#000000;strokeColor=#FF0000;" parent="1" vertex="1"><mxGeometry x="495" y="290" width="5" height="5" as="geometry"/></mxCell></object><object label="" type="drone" id="92"><mxCell style="rounded=0;whiteSpace=wrap;html=1;fillColor=#000000;strokeColor=#FF0000;" parent="1" vertex="1"><mxGeometry x="505" y="290" width="5" height="5" as="geometry"/></mxCell></object><object label="" type="drone" id="93"><mxCell style="rounded=0;whiteSpace=wrap;html=1;fillColor=#000000;strokeColor=#FF0000;" parent="1" vertex="1"><mxGeometry x="535" y="325" width="5" height="5" as="geometry"/></mxCell></object><object label="" type="drone" id="94"><mxCell style="rounded=0;whiteSpace=wrap;html=1;fillColor=#000000;strokeColor=#FF0000;" parent="1" vertex="1"><mxGeometry x="545" y="325" width="5" height="5" as="geometry"/></mxCell></object><object label="" type="drone" id="95"><mxCell style="rounded=0;whiteSpace=wrap;html=1;fillColor=#000000;strokeColor=#FF0000;" parent="1" vertex="1"><mxGeometry x="555" y="325" width="5" height="5" as="geometry"/></mxCell></object><object label="" type="drone" id="96"><mxCell style="rounded=0;whiteSpace=wrap;html=1;fillColor=#000000;strokeColor=#FF0000;" parent="1" vertex="1"><mxGeometry x="565" y="325" width="5" height="5" as="geometry"/></mxCell></object><object label="" type="drone" id="97"><mxCell style="rounded=0;whiteSpace=wrap;html=1;fillColor=#000000;strokeColor=#FF0000;" parent="1" vertex="1"><mxGeometry x="480" y="360" width="5" height="5" as="geometry"/></mxCell></object><object label="" type="drone" id="98"><mxCell style="rounded=0;whiteSpace=wrap;html=1;fillColor=#000000;strokeColor=#FF0000;" parent="1" vertex="1"><mxGeometry x="490" y="360" width="5" height="5" as="geometry"/></mxCell></object><object label="" type="drone" id="99"><mxCell style="rounded=0;whiteSpace=wrap;html=1;fillColor=#000000;strokeColor=#FF0000;" parent="1" vertex="1"><mxGeometry x="500" y="360" width="5" height="5" as="geometry"/></mxCell></object><object label="" type="drone" id="100"><mxCell style="rounded=0;whiteSpace=wrap;html=1;fillColor=#000000;strokeColor=#FF0000;" parent="1" vertex="1"><mxGeometry x="510" y="360" width="5" height="5" as="geometry"/></mxCell></object><object label="" type="drone" id="101"><mxCell style="rounded=0;whiteSpace=wrap;html=1;fillColor=#000000;strokeColor=#FF0000;" parent="1" vertex="1"><mxGeometry x="540" y="390" width="5" height="5" as="geometry"/></mxCell></object><object label="" type="drone" id="102"><mxCell style="rounded=0;whiteSpace=wrap;html=1;fillColor=#000000;strokeColor=#FF0000;" parent="1" vertex="1"><mxGeometry x="550" y="390" width="5" height="5" as="geometry"/></mxCell></object><object label="" type="drone" id="103"><mxCell style="rounded=0;whiteSpace=wrap;html=1;fillColor=#000000;strokeColor=#FF0000;" parent="1" vertex="1"><mxGeometry x="560" y="390" width="5" height="5" as="geometry"/></mxCell></object><object label="" type="drone" id="104"><mxCell style="rounded=0;whiteSpace=wrap;html=1;fillColor=#000000;strokeColor=#FF0000;" parent="1" vertex="1"><mxGeometry x="570" y="390" width="5" height="5" as="geometry"/></mxCell></object><object label="" type="drone" id="105"><mxCell style="rounded=0;whiteSpace=wrap;html=1;fillColor=#000000;strokeColor=#FF0000;" parent="1" vertex="1"><mxGeometry x="420" y="40" width="5" height="5" as="geometry"/></mxCell></object><object label="" type="drone" id="106"><mxCell style="rounded=0;whiteSpace=wrap;html=1;fillColor=#000000;strokeColor=#FF0000;" parent="1" vertex="1"><mxGeometry x="430" y="40" width="5" height="5" as="geometry"/></mxCell></object><object label="" type="drone" id="107"><mxCell style="rounded=0;whiteSpace=wrap;html=1;fillColor=#000000;strokeColor=#FF0000;" parent="1" vertex="1"><mxGeometry x="440" y="40" width="5" height="5" as="geometry"/></mxCell></object><object label="" type="drone" id="108"><mxCell style="rounded=0;whiteSpace=wrap;html=1;fillColor=#000000;strokeColor=#FF0000;" parent="1" vertex="1"><mxGeometry x="450" y="40" width="5" height="5" as="geometry"/></mxCell></object><object label="" type="drone" id="109"><mxCell style="rounded=0;whiteSpace=wrap;html=1;fillColor=#000000;strokeColor=#FF0000;" parent="1" vertex="1"><mxGeometry x="420" y="80" width="5" height="5" as="geometry"/></mxCell></object><object label="" type="drone" id="110"><mxCell style="rounded=0;whiteSpace=wrap;html=1;fillColor=#000000;strokeColor=#FF0000;" parent="1" vertex="1"><mxGeometry x="430" y="80" width="5" height="5" as="geometry"/></mxCell></object><object label="" type="drone" id="111"><mxCell style="rounded=0;whiteSpace=wrap;html=1;fillColor=#000000;strokeColor=#FF0000;" parent="1" vertex="1"><mxGeometry x="440" y="80" width="5" height="5" as="geometry"/></mxCell></object><object label="" type="drone" id="112"><mxCell style="rounded=0;whiteSpace=wrap;html=1;fillColor=#000000;strokeColor=#FF0000;" parent="1" vertex="1"><mxGeometry x="450" y="80" width="5" height="5" as="geometry"/></mxCell></object><object label="" type="drone" id="113"><mxCell style="rounded=0;whiteSpace=wrap;html=1;fillColor=#000000;strokeColor=#FF0000;" parent="1" vertex="1"><mxGeometry x="495" y="60" width="5" height="5" as="geometry"/></mxCell></object><object label="" type="drone" id="114"><mxCell style="rounded=0;whiteSpace=wrap;html=1;fillColor=#000000;strokeColor=#FF0000;" parent="1" vertex="1"><mxGeometry x="505" y="60" width="5" height="5" as="geometry"/></mxCell></object><object label="" type="drone" id="115"><mxCell style="rounded=0;whiteSpace=wrap;html=1;fillColor=#000000;strokeColor=#FF0000;" parent="1" vertex="1"><mxGeometry x="515" y="60" width="5" height="5" as="geometry"/></mxCell></object><object label="" type="drone" id="116"><mxCell style="rounded=0;whiteSpace=wrap;html=1;fillColor=#000000;strokeColor=#FF0000;" parent="1" vertex="1"><mxGeometry x="525" y="60" width="5" height="5" as="geometry"/></mxCell></object><object label="" type="drone" id="117"><mxCell style="rounded=0;whiteSpace=wrap;html=1;fillColor=#000000;strokeColor=#FF0000;" parent="1" vertex="1"><mxGeometry x="530" y="115" width="5" height="5" as="geometry"/></mxCell></object><object label="" type="drone" id="118"><mxCell style="rounded=0;whiteSpace=wrap;html=1;fillColor=#000000;strokeColor=#FF0000;" parent="1" vertex="1"><mxGeometry x="540" y="115" width="5" height="5" as="geometry"/></mxCell></object><object label="" type="drone" id="119"><mxCell style="rounded=0;whiteSpace=wrap;html=1;fillColor=#000000;strokeColor=#FF0000;" parent="1" vertex="1"><mxGeometry x="550" y="115" width="5" height="5" as="geometry"/></mxCell></object><object label="" type="drone" id="120"><mxCell style="rounded=0;whiteSpace=wrap;html=1;fillColor=#000000;strokeColor=#FF0000;" parent="1" vertex="1"><mxGeometry x="560" y="115" width="5" height="5" as="geometry"/></mxCell></object><object label="" type="drone" id="121"><mxCell style="rounded=0;whiteSpace=wrap;html=1;fillColor=#000000;strokeColor=#FF0000;" parent="1" vertex="1"><mxGeometry x="60" y="120" width="5" height="5" as="geometry"/></mxCell></object><object label="" type="drone" id="122"><mxCell style="rounded=0;whiteSpace=wrap;html=1;fillColor=#000000;strokeColor=#FF0000;" parent="1" vertex="1"><mxGeometry x="70" y="120" width="5" height="5" as="geometry"/></mxCell></object><object label="" type="drone" id="123"><mxCell style="rounded=0;whiteSpace=wrap;html=1;fillColor=#000000;strokeColor=#FF0000;" parent="1" vertex="1"><mxGeometry x="80" y="120" width="5" height="5" as="geometry"/></mxCell></object><object label="" type="drone" id="124"><mxCell style="rounded=0;whiteSpace=wrap;html=1;fillColor=#000000;strokeColor=#FF0000;" parent="1" vertex="1"><mxGeometry x="90" y="120" width="5" height="5" as="geometry"/></mxCell></object><object label="" type="drone" id="125"><mxCell style="rounded=0;whiteSpace=wrap;html=1;fillColor=#000000;strokeColor=#FF0000;" parent="1" vertex="1"><mxGeometry x="400" y="202" width="5" height="5" as="geometry"/></mxCell></object><object label="" type="drone" id="126"><mxCell style="rounded=0;whiteSpace=wrap;html=1;fillColor=#000000;strokeColor=#FF0000;" parent="1" vertex="1"><mxGeometry x="410" y="202" width="5" height="5" as="geometry"/></mxCell></object><object label="" type="drone" id="127"><mxCell style="rounded=0;whiteSpace=wrap;html=1;fillColor=#000000;strokeColor=#FF0000;" parent="1" vertex="1"><mxGeometry x="420" y="202" width="5" height="5" as="geometry"/></mxCell></object><object label="" type="drone" id="128"><mxCell style="rounded=0;whiteSpace=wrap;html=1;fillColor=#000000;strokeColor=#FF0000;" parent="1" vertex="1"><mxGeometry x="430" y="202" width="5" height="5" as="geometry"/></mxCell></object><object label="" type="drone" id="129"><mxCell style="rounded=0;whiteSpace=wrap;html=1;fillColor=#000000;strokeColor=#FF0000;" parent="1" vertex="1"><mxGeometry x="280" y="120" width="5" height="5" as="geometry"/></mxCell></object><object label="" type="drone" id="130"><mxCell style="rounded=0;whiteSpace=wrap;html=1;fillColor=#000000;strokeColor=#FF0000;" parent="1" vertex="1"><mxGeometry x="290" y="120" width="5" height="5" as="geometry"/></mxCell></object><object label="" type="drone" id="131"><mxCell style="rounded=0;whiteSpace=wrap;html=1;fillColor=#000000;strokeColor=#FF0000;" parent="1" vertex="1"><mxGeometry x="300" y="120" width="5" height="5" as="geometry"/></mxCell></object><object label="" type="drone" id="132"><mxCell style="rounded=0;whiteSpace=wrap;html=1;fillColor=#000000;strokeColor=#FF0000;" parent="1" vertex="1"><mxGeometry x="310" y="120" width="5" height="5" as="geometry"/></mxCell></object><object label="" type="drone" id="133"><mxCell style="rounded=0;whiteSpace=wrap;html=1;fillColor=#000000;strokeColor=#FF0000;" parent="1" vertex="1"><mxGeometry x="322" y="270" width="5" height="5" as="geometry"/></mxCell></object><object label="" type="drone" id="134"><mxCell style="rounded=0;whiteSpace=wrap;html=1;fillColor=#000000;strokeColor=#FF0000;" parent="1" vertex="1"><mxGeometry x="332" y="270" width="5" height="5" as="geometry"/></mxCell></object><object label="" type="drone" id="135"><mxCell style="rounded=0;whiteSpace=wrap;html=1;fillColor=#000000;strokeColor=#FF0000;" parent="1" vertex="1"><mxGeometry x="342" y="270" width="5" height="5" as="geometry"/></mxCell></object><object label="" type="drone" id="136"><mxCell style="rounded=0;whiteSpace=wrap;html=1;fillColor=#000000;strokeColor=#FF0000;" parent="1" vertex="1"><mxGeometry x="352" y="270" width="5" height="5" as="geometry"/></mxCell></object><object label="" type="drone" id="137"><mxCell style="rounded=0;whiteSpace=wrap;html=1;fillColor=#000000;strokeColor=#FF0000;" parent="1" vertex="1"><mxGeometry x="440" y="130" width="5" height="5" as="geometry"/></mxCell></object><object label="" type="drone" id="138"><mxCell style="rounded=0;whiteSpace=wrap;html=1;fillColor=#000000;strokeColor=#FF0000;" parent="1" vertex="1"><mxGeometry x="450" y="130" width="5" height="5" as="geometry"/></mxCell></object><object label="" type="drone" id="139"><mxCell style="rounded=0;whiteSpace=wrap;html=1;fillColor=#000000;strokeColor=#FF0000;" parent="1" vertex="1"><mxGeometry x="460" y="130" width="5" height="5" as="geometry"/></mxCell></object><object label="" type="drone" id="140"><mxCell style="rounded=0;whiteSpace=wrap;html=1;fillColor=#000000;strokeColor=#FF0000;" parent="1" vertex="1"><mxGeometry x="470" y="130" width="5" height="5" as="geometry"/></mxCell></object><object label="" type="drone" id="141"><mxCell style="rounded=0;whiteSpace=wrap;html=1;fillColor=#000000;strokeColor=#FF0000;" parent="1" vertex="1"><mxGeometry x="505" y="165" width="5" height="5" as="geometry"/></mxCell></object><object label="" type="drone" id="142"><mxCell style="rounded=0;whiteSpace=wrap;html=1;fillColor=#000000;strokeColor=#FF0000;" parent="1" vertex="1"><mxGeometry x="515" y="165" width="5" height="5" as="geometry"/></mxCell></object><object label="" type="drone" id="143"><mxCell style="rounded=0;whiteSpace=wrap;html=1;fillColor=#000000;strokeColor=#FF0000;" parent="1" vertex="1"><mxGeometry x="525" y="165" width="5" height="5" as="geometry"/></mxCell></object><object label="" type="drone" id="144"><mxCell style="rounded=0;whiteSpace=wrap;html=1;fillColor=#000000;strokeColor=#FF0000;" parent="1" vertex="1"><mxGeometry x="535" y="165" width="5" height="5" as="geometry"/></mxCell></object><object label="" type="drone" id="145"><mxCell style="rounded=0;whiteSpace=wrap;html=1;fillColor=#000000;strokeColor=#FF0000;" parent="1" vertex="1"><mxGeometry x="480" y="220" width="5" height="5" as="geometry"/></mxCell></object><object label="" type="drone" id="146"><mxCell style="rounded=0;whiteSpace=wrap;html=1;fillColor=#000000;strokeColor=#FF0000;" parent="1" vertex="1"><mxGeometry x="490" y="220" width="5" height="5" as="geometry"/></mxCell></object><object label="" type="drone" id="147"><mxCell style="rounded=0;whiteSpace=wrap;html=1;fillColor=#000000;strokeColor=#FF0000;" parent="1" vertex="1"><mxGeometry x="500" y="220" width="5" height="5" as="geometry"/></mxCell></object><object label="" type="drone" id="148"><mxCell style="rounded=0;whiteSpace=wrap;html=1;fillColor=#000000;strokeColor=#FF0000;" parent="1" vertex="1"><mxGeometry x="510" y="220" width="5" height="5" as="geometry"/></mxCell></object><object label="" type="drone" id="149"><mxCell style="rounded=0;whiteSpace=wrap;html=1;fillColor=#000000;strokeColor=#FF0000;" parent="1" vertex="1"><mxGeometry x="535" y="260" width="5" height="5" as="geometry"/></mxCell></object><object label="" type="drone" id="150"><mxCell style="rounded=0;whiteSpace=wrap;html=1;fillColor=#000000;strokeColor=#FF0000;" parent="1" vertex="1"><mxGeometry x="545" y="260" width="5" height="5" as="geometry"/></mxCell></object><object label="" type="drone" id="151"><mxCell style="rounded=0;whiteSpace=wrap;html=1;fillColor=#000000;strokeColor=#FF0000;" parent="1" vertex="1"><mxGeometry x="555" y="260" width="5" height="5" as="geometry"/></mxCell></object><object label="" type="drone" id="152"><mxCell style="rounded=0;whiteSpace=wrap;html=1;fillColor=#000000;strokeColor=#FF0000;" parent="1" vertex="1"><mxGeometry x="565" y="260" width="5" height="5" as="geometry"/></mxCell></object></root></mxGraphModel></diagram></mxfile>